<?xml version="1.0" encoding="UTF-8"?>
<!--Generator: Apple Native CoreSVG 326-->
<!DOCTYPE svg
PUBLIC "-//W3C//DTD SVG 1.1//EN"
       "http://www.w3.org/Graphics/SVG/1.1/DTD/svg11.dtd">
<svg version="1.1" xmlns="http://www.w3.org/2000/svg" xmlns:xlink="http://www.w3.org/1999/xlink" viewBox="0 0 67.4972 67.1643">
 <g>
  <rect height="67.1643" opacity="0" width="67.4972" x="0" y="0"/>
  <path d="M30.6702 67.1566L36.493 67.1566C38.4726 67.1566 39.9239 65.9704 40.3767 64.0141L41.9337 57.482C42.8937 57.1535 43.8459 56.7684 44.7072 56.3744L50.408 59.9057C52.0647 60.941 53.9843 60.7712 55.3414 59.3897L59.4374 55.3181C60.8111 53.9366 60.9898 51.977 59.9057 50.3115L56.4144 44.6517C56.8084 43.7649 57.1857 42.8615 57.4732 41.9503L64.0618 40.3933C66.0103 39.9406 67.1554 38.4892 67.1554 36.5097L67.1554 30.7756C67.1554 28.8204 66.0103 27.378 64.0618 26.9086L57.5375 25.3427C57.2012 24.3494 56.8072 23.4305 56.4632 22.6258L59.97 16.8529C61.0131 15.1562 60.8766 13.3099 59.4707 11.9117L55.3258 7.81567C53.9277 6.54624 52.1767 6.27104 50.5278 7.26753L44.7072 10.8631C43.8703 10.4447 42.9347 10.0918 41.9414 9.74775L40.3767 3.13471C39.9162 1.18618 38.4726 0 36.493 0L30.6702 0C28.6828 0 27.247 1.18618 26.7788 3.14247L25.2295 9.69892C24.2618 10.0274 23.294 10.3959 22.4239 10.8387L16.6354 7.26753C14.9709 6.27104 13.1789 6.48188 11.8296 7.82343L7.68471 11.9117C6.27881 13.3099 6.14233 15.1562 7.19316 16.8529L10.6922 22.6258C10.3482 23.4305 9.9542 24.3494 9.62568 25.3427L3.10141 26.9086C1.16953 27.378 0 28.8204 0 30.7756L0 36.5097C0 38.4892 1.16953 39.9406 3.10141 40.3933L9.68227 41.9503C9.97749 42.8615 10.3471 43.7649 10.7411 44.6517L7.24975 50.3115C6.17339 51.977 6.35205 53.9366 7.72578 55.3181L11.8141 59.3897C13.1789 60.7712 15.0985 60.941 16.7474 59.9057L22.456 56.3744C23.3262 56.7684 24.2618 57.1535 25.2295 57.482L26.7788 64.0141C27.2393 65.9704 28.6828 67.1566 30.6702 67.1566ZM33.5777 44.6052C27.4941 44.6052 22.5425 39.6535 22.5425 33.57C22.5425 27.4786 27.4941 22.5347 33.5777 22.5347C39.6691 22.5347 44.613 27.4786 44.613 33.57C44.613 39.6535 39.6691 44.6052 33.5777 44.6052Z" fill="black" fill-opacity="0.85"/>
 </g>
</svg>
